<svg xmlns="http://www.w3.org/2000/svg" version="1.2" baseProfile="tiny-ps" viewBox="0 0 1156 1156">
  <title>Willis Security</title>
  <rect x="0" y="0" width="1156" height="1156" fill="#FFFFFF"/>
  <path fill="#393939" fill-rule="evenodd" d="M843,897 L857,929 L857,944 L862,944 L862,929 L876,897 L870,897 L860,922 L858,921 L850,898 L849,897 Z M801,897 L801,901 L813,901 L814,902 L814,944 L820,944 L820,902 L821,901 L833,901 L833,897 Z M782,897 L782,944 L787,944 L787,897 Z M734,897 L734,944 L740,944 L740,926 L741,925 L753,925 L758,931 L760,944 L766,944 L764,939 L763,929 L761,925 L756,922 L760,920 L764,915 L765,907 L763,902 L759,898 L756,897 Z M740,902 L741,901 L755,902 L759,907 L758,916 L755,919 L752,920 L741,920 L740,919 Z M684,897 L684,934 L687,940 L693,944 L706,944 L710,942 L713,939 L716,931 L716,897 L710,897 L710,932 L708,936 L702,940 L695,939 L690,933 L689,930 L689,897 Z M594,897 L594,944 L621,944 L621,939 L601,939 L600,938 L600,923 L601,922 L618,922 L618,917 L601,917 L600,916 L600,902 L601,901 L621,901 L621,897 Z M456,897 L456,944 L461,944 L461,897 Z M415,897 L415,944 L441,944 L441,939 L422,939 L421,938 L421,897 Z M375,897 L375,944 L400,944 L400,939 L381,939 L380,938 L380,897 Z M350,897 L350,944 L355,944 L355,897 Z M279,897 L290,944 L298,944 L299,942 L299,937 L305,907 L307,903 L309,908 L315,942 L316,944 L324,944 L335,897 L329,897 L322,933 L320,938 L318,935 L311,897 L303,897 L302,898 L297,929 L294,938 L292,934 L285,897 Z M646,896 L639,900 L635,908 L635,916 L634,917 L635,932 L638,939 L641,942 L645,944 L657,944 L662,942 L665,939 L668,932 L668,928 L663,928 L661,935 L654,940 L649,940 L643,936 L640,928 L641,908 L647,901 L651,900 L656,901 L660,904 L662,908 L662,912 L668,912 L668,908 L664,900 L660,897 Z M556,896 L549,901 L548,903 L548,912 L553,918 L567,923 L572,929 L572,934 L566,940 L559,940 L554,937 L552,934 L552,931 L546,931 L546,933 L550,941 L556,944 L569,944 L573,942 L577,937 L578,933 L577,926 L572,920 L566,917 L558,915 L554,911 L553,906 L557,901 L560,900 L567,901 L571,905 L572,909 L577,909 L577,906 L575,901 L570,897 Z M488,896 L481,900 L479,904 L479,912 L484,918 L500,924 L503,928 L503,935 L497,940 L490,940 L484,935 L483,931 L478,931 L478,936 L483,942 L487,944 L500,944 L504,942 L508,937 L509,934 L508,925 L502,919 L489,915 L485,911 L484,908 L485,904 L488,901 L491,900 L496,900 L500,902 L503,909 L508,909 L508,905 L506,901 L499,896 Z"/>
  <path fill="#545454" fill-rule="evenodd" d="M508,549 L495,571 L564,681 L577,660 Z M592,411 L578,433 L647,546 L660,524 Z"/>
  <path fill="#737373" fill-rule="evenodd" d="M853,212 L580,306 L610,318 L579,337 L621,362 L591,411 L660,523 L781,329 L766,318 L795,306 Z M80,211 L467,838 L563,682 L495,572 L465,615 L314,366 L371,325 L359,308 Z"/>
  <path fill="#868686" fill-rule="evenodd" d="M301,211 L688,839 L1075,212 L767,318 L842,363 L688,616 L534,362 L609,318 Z"/>
</svg>
